HIERARCHY
ROOT Hips
{
	OFFSET 0.00000 0.00000 0.00000
	CHANNELS 6 Xposition Yposition Zposition Yrotation Zrotation Xrotation 
	JOINT Lumbar
	{
		OFFSET 0 0 0
		CHANNELS 3 Zrotation Xrotation Yrotation
		JOINT Neck
		{
			OFFSET 0.00 0.2701 0.00
			CHANNELS 3 Zrotation Xrotation Yrotation
			End Site
			{
				OFFSET 0.00 0.1379 0.00
			}
		}
		JOINT RightShoulder
		{
			OFFSET 0.0119 0.2289 0.1181
			CHANNELS 3 Zrotation Xrotation Yrotation
			JOINT RightElbow
			{
				OFFSET 0.00 -0.1475 0.00
				CHANNELS 2 Zrotation Yrotation
				JOINT RightWrist
				{
					OFFSET 0.00 -0.1605 0.00
					CHANNELS 2 Zrotation Xrotation
					End Site
					{
						OFFSET 0.0040 -0.1068 0.0006
					}
				}
			}
		}
		JOINT LeftShoulder
		{
			OFFSET 0.0119 0.2289 -0.1181
			CHANNELS 3 Zrotation Xrotation Yrotation
			JOINT LeftElbow
			{
				OFFSET 0.00 -0.1475 0.00
				CHANNELS 2 Zrotation Yrotation
				JOINT LeftWrist
				{
					OFFSET 0.00 -0.1605 0.00
					CHANNELS 2 Zrotation Xrotation
					End Site
					{
						OFFSET 0.0040 -0.1068 -0.0006
					}
				}
			}
		}
	}
	JOINT RightHip
	{
		OFFSET 0.0316 -0.0424 0.0458
		CHANNELS 3 Zrotation Xrotation Yrotation
		JOINT RightKnee
		{
			OFFSET 0.00 -0.2438 0.00
			CHANNELS 1 Zrotation
			JOINT RightAnkle
			{
				OFFSET 0.00 -0.2449 0.00
				CHANNELS 3 Zrotation Xrotation Yrotation
				End Site
				{
					OFFSET 0.1237 -0.0542 0.0051
				}
			}
		}
	}
	JOINT LeftHip
	{
		OFFSET 0.0316 -0.0424 -0.0458
		CHANNELS 3 Zrotation Xrotation Yrotation
		JOINT LeftKnee
		{
			OFFSET 0.00 -0.2438 0.00
			CHANNELS 1 Zrotation
			JOINT LeftAnkle
			{
				OFFSET 0.00 -0.2449 0.00
				CHANNELS 3 Zrotation Xrotation Yrotation
				End Site
				{
					OFFSET 0.1237 -0.0542 -0.0051
				}
			}
		}
	}
}
MOTION
Frames: 34
Frame Time: 0.02
-1.12677 0.5369 0.21678 599.94428 0 -6.58081 -18.20057 13.69368 1.6481 -18.34357 2.84007 3.14147 44.14412 -27.24566 -12.87806 24.2291 60.35966 -8.90426 3.93555 28.72624 17.95695 -54.49175 88.37992 -68.3221 -27.92346 1.87627 14.37172 -10.6758 4.01859 -8.52582 -11.47185 -2.22974 -1.51484 21.04703 8.82628 -5.21456 -49.01464 19.33059 -15.85864 -10.01255
-1.11856 0.53837 0.21622 599.33896 0 -6.65793 -18.20476 13.14912 1.79367 -18.46477 2.30752 2.94522 44.40002 -25.83455 -13.72582 23.68574 62.30744 -7.8271 4.22687 29.08557 18.50441 -54.88747 88.4138 -67.7755 -27.79867 1.79367 15.37562 -10.07434 2.96275 -10.89866 -10.91967 -2.16496 -0.51873 21.09721 8.59526 -4.04806 -48.38605 18.95418 -15.12683 -10.1418
-1.11115 0.54088 0.21516 598.71311 0 -6.75399 -18.2275 12.64377 1.94168 -18.58918 1.73589 2.68979 44.71313 -24.23426 -14.75049 23.09993 64.62322 -6.66499 4.53411 29.48831 19.14217 -55.27941 88.2827 -67.45002 -27.57767 1.73947 16.52619 -9.14036 1.3772 -14.0708 -10.13103 -2.0697 0.88039 20.87533 8.4174 -3.10584 -47.2032 18.44225 -13.87742 -10.07154
-1.10343 0.54294 0.21433 598.11229 0 -6.8373 -18.24005 12.12809 2.08509 -18.69297 1.18971 2.46222 44.97507 -22.75122 -15.62518 22.54525 66.70449 -5.57247 4.82457 29.84826 19.72559 -55.6729 88.22547 -67.00987 -27.40661 1.67062 17.57199 -8.35544 0.02289 -16.86093 -9.42723 -1.98005 2.07432 20.76862 8.21068 -2.07256 -46.25229 17.97316 -12.86761 -10.09885
-1.09552 0.54491 0.2135 597.44192 0 -6.93589 -18.26173 11.57609 2.24305 -18.87761 0.6062 2.22761 45.34396 -21.12748 -16.78845 21.9351 69.08415 -4.33915 5.15531 30.30903 20.3713 -56.07078 88.16867 -66.6207 -27.21074 1.60778 18.7828 -7.57656 -1.29418 -19.73673 -8.81291 -1.92387 3.36354 20.69944 8.0244 -0.97642 -45.38512 17.57142 -11.82714 -10.09877
-1.08818 0.5473 0.21254 596.91184 0 -7.00694 -18.26778 11.11066 2.372 -18.89454 0.09267 1.99546 45.50453 -19.75577 -17.40143 21.43239 70.92659 -3.38265 5.40616 30.56747 20.90782 -56.45634 88.07523 -66.18267 -27.04254 1.53978 19.68111 -6.70843 -2.80965 -22.61582 -7.96123 -1.79241 4.54602 20.48777 7.80733 -0.06968 -44.21469 17.00344 -10.73449 -10.10764
-1.08218 0.55071 0.21133 596.78555 0 -7.01071 -18.2309 10.87799 2.41249 -18.44891 -0.21389 1.77589 45.06274 -19.11944 -16.3665 21.23847 71.16489 -3.21308 5.42921 30.27341 21.10267 -56.81924 87.89818 -65.53916 -26.98222 1.44943 19.70556 -5.65972 -4.79151 -25.37506 -6.47636 -1.44576 5.37442 19.93775 7.50036 0.35318 -42.31179 15.98911 -9.59747 -10.19031
-1.07673 0.55448 0.21002 596.79931 0 -6.98426 -18.17674 10.73173 2.42526 -17.83447 -0.4489 1.56287 44.41214 -18.74573 -14.78659 21.15476 70.85276 -3.32626 5.37163 29.7713 21.18687 -57.16742 87.69411 -64.8434 -26.95177 1.3534 19.40545 -4.53608 -6.94591 -28.09566 -4.76783 -1.02697 6.07496 19.25612 7.15937 0.59397 -40.12952 14.81783 -8.43239 -10.28853
-1.07104 0.55801 0.20875 596.74254 0 -6.96318 -18.12695 10.54371 2.45549 -17.29609 -0.7184 1.35273 43.86465 -18.2574 -13.51232 21.02011 70.81078 -3.31016 5.35344 29.35253 21.33231 -57.51526 87.51824 -64.18288 -26.90199 1.26077 19.23741 -3.45659 -8.99013 -30.79267 -3.18547 -0.65112 6.80773 18.64094 6.82828 0.92524 -38.09319 13.73263 -7.29899 -10.37925
-1.06532 0.56189 0.20746 596.71541 0 -6.97736 -18.09185 10.36513 2.4645 -16.75933 -0.98023 1.11534 43.28187 -17.74225 -12.00184 20.88692 70.69904 -3.29377 5.3253 28.98067 21.43438 -57.89318 87.27115 -63.47969 -26.87199 1.16523 19.14002 -2.32132 -11.18736 -33.69916 -1.49125 -0.23207 7.6613 17.98545 6.52135 1.21445 -35.95195 12.57834 -6.06675 -10.46503
-1.05978 0.56511 0.20621 596.65838 0 -6.91147 -18.02266 10.18987 2.51204 -16.18066 -1.24152 0.93757 42.72555 -17.34794 -10.8487 20.77813 70.59512 -3.34685 5.29717 28.46361 21.59983 -58.20436 87.16591 -62.85229 -26.81057 1.07455 18.81604 -1.29069 -13.09944 -36.13991 0.01998 0.11467 8.23075 17.38974 6.15679 1.55327 -33.977 11.53485 -5.04134 -10.56718
-1.05462 0.56643 0.20509 596.49852 0 -6.62569 -17.85606 9.97796 2.66435 -15.51403 -1.50873 0.91866 42.26608 -17.22334 -10.83869 20.70424 70.66041 -3.51937 5.30039 27.57457 21.96126 -58.33916 87.47868 -62.42773 -26.64376 0.99429 17.95047 -0.55277 -14.18026 -37.38493 0.96966 0.23533 8.01692 16.96299 5.6296 2.05243 -32.47472 10.8173 -4.59018 -10.71336
-1.0496 0.56705 0.20401 596.30059 0 -6.26176 -17.65718 9.7713 2.85779 -14.81371 -1.77887 0.96062 41.84609 -17.21216 -11.201 20.65238 70.74781 -3.75363 5.30429 26.55046 22.39031 -58.40587 87.93207 -62.08384 -26.44717 0.91985 16.86787 0.07286 -14.96339 -38.14426 1.7262 0.28175 7.52425 16.60817 5.04819 2.61218 -31.16368 10.22133 -4.35175 -10.87604
-1.0445 0.56796 0.20291 596.11181 0 -5.9372 -17.4777 9.57763 3.03809 -14.13746 -2.05489 0.97775 41.42453 -17.14991 -11.378 20.59427 70.81521 -3.9615 5.30003 25.60231 22.79281 -58.5018 88.30927 -61.71444 -26.27179 0.84546 15.879 0.73862 -15.88433 -39.06781 2.57144 0.36836 7.17806 16.2396 4.4983 3.15999 -29.80228 9.58188 -4.02066 -11.03036
-1.03949 0.56902 0.20182 595.96492 0 -5.59402 -17.27709 9.32014 3.1946 -13.41769 -2.30067 0.98308 40.92312 -17.09489 -11.60782 20.52405 70.9074 -4.16994 5.32554 24.58534 23.17662 -58.60721 88.73819 -61.29596 -26.06389 0.75936 14.89376 1.45317 -16.81095 -40.22566 3.42219 0.43218 6.74799 15.78388 3.91558 3.63811 -28.27141 8.88516 -3.67014 -11.18847
-1.03432 0.56958 0.20073 595.71667 0 -5.27307 -17.11377 9.19812 3.40999 -12.78358 -2.60768 1.0274 40.60447 -17.04809 -11.81846 20.48292 70.95814 -4.39091 5.29094 23.68242 23.61337 -58.67351 89.09204 -60.9999 -25.91766 0.69928 13.86093 2.03851 -17.64021 -40.78487 4.2108 0.5225 6.42334 15.53154 3.3921 4.27482 -27.149 8.34118 -3.41248 -11.34275
-1.02873 0.56893 0.19958 595.2248 0 -5.01846 -17.05495 9.42733 3.78432 -12.38827 -3.11147 1.16416 40.7445 -16.99736 -11.92675 20.51571 70.9077 -4.6069 5.08455 23.12817 24.20865 -58.67819 89.21335 -61.01923 -25.9376 0.70818 12.68863 2.2916 -18.37996 -39.7712 4.88775 0.72489 6.49987 15.79784 3.01697 5.36295 -27.05599 8.16802 -3.34759 -11.47911
-1.02296 0.56779 0.19843 594.62644 0 -4.79144 -17.0359 9.79591 4.21489 -12.08242 -3.67117 1.33794 41.07472 -16.94931 -11.99746 20.57663 70.81256 -4.83652 4.81901 22.69452 24.84913 -58.6409 89.25219 -61.15989 -26.02288 0.74336 11.48898 2.41792 -19.01212 -38.17922 5.50423 0.95263 6.68608 16.27116 2.70856 6.60293 -27.37865 8.14868 -3.37091 -11.61095
-1.01725 0.56687 0.19729 594.05854 0 -4.56156 -17.00308 10.11485 4.61636 -11.74025 -4.1878 1.49517 41.34303 -16.8982 -12.06121 20.62483 70.73022 -5.07456 4.58478 22.20593 25.45171 -58.60279 89.3236 -61.24697 -26.08528 0.76745 10.34361 2.60467 -19.62156 -36.8774 6.14023 1.15438 6.79375 16.66779 2.38875 7.7574 -27.54625 8.07423 -3.36198 -11.74785
-1.01165 0.56595 0.1961 593.56539 0 -4.28916 -16.95154 10.37771 5.03647 -11.37799 -4.7817 1.654 41.50991 -16.85968 -12.24057 20.67373 70.686 -5.25327 4.33222 21.71204 26.13362 -58.64422 89.42274 -61.32967 -26.11686 0.78811 9.01377 2.77861 -20.51919 -35.44292 6.80756 1.41322 7.00793 16.99588 1.98814 8.98885 -27.57704 7.94338 -3.32845 -11.87545
-1.00576 0.56493 0.19503 592.89141 0 -4.11152 -16.94814 10.78852 5.42773 -11.07989 -5.2246 1.81673 41.93164 -16.79324 -12.16354 20.72737 70.54403 -5.55792 4.10331 21.26089 26.65542 -58.51349 89.44006 -61.44998 -26.22986 0.82213 8.06454 2.94689 -20.79974 -34.15409 7.39235 1.56194 7.03602 17.51188 1.77112 10.08857 -27.98957 7.96256 -3.36297 -12.01764
-0.99914 0.56366 0.1942 591.74587 0 -4.20121 -17.07412 11.58914 5.74975 -10.93306 -5.26544 1.98742 43.01976 -16.65446 -11.4022 20.7881 70.21069 -6.20558 3.95893 20.88949 26.76452 -57.89636 89.27306 -61.63674 -26.53877 0.88575 8.17423 3.16279 -19.36009 -33.40642 7.8101 1.38477 6.47244 18.52125 2.05699 10.84441 -29.35031 8.37929 -3.57444 -12.23071
-0.99222 0.56233 0.1935 590.4213 0 -4.38351 -17.24597 12.53054 6.03607 -10.84901 -5.14723 2.15921 44.35554 -16.4854 -10.37937 20.85207 69.76971 -6.97861 3.83985 20.56005 26.70326 -57.11226 89.0215 -61.85716 -26.92864 0.9618 8.66836 3.37218 -17.31177 -32.82691 8.13881 1.09893 5.72849 19.70659 2.52384 11.45135 -31.08079 8.93755 -3.84822 -12.4529
-0.98543 0.56108 0.1928 589.17844 0 -4.51549 -17.39321 13.3979 6.32265 -10.73864 -5.08285 2.32624 45.57213 -16.32669 -9.46524 20.91423 69.33131 -7.6959 3.70566 20.21688 26.69284 -56.41828 88.79435 -62.06823 -27.29172 1.033 8.98738 3.56359 -15.57242 -32.17618 8.47949 0.87378 5.10224 20.79571 2.89941 12.08903 -32.64374 9.41626 -4.08556 -12.65168
-0.97867 0.55959 0.19185 587.93268 0 -4.68262 -17.5586 14.31431 6.67861 -10.62064 -5.09755 2.51298 46.82478 -16.18458 -8.59379 20.97996 69.07942 -8.41195 3.58327 19.85212 26.79532 -55.66058 88.62508 -62.26288 -27.62012 1.10276 9.30879 3.83772 -13.69561 -31.48835 8.93985 0.60278 4.32973 21.96459 3.31325 12.88865 -34.21895 9.96325 -4.36077 -12.93225
-0.97178 0.55858 0.19145 586.64894 0 -4.79881 -17.69545 15.15804 6.88084 -10.534 -4.91003 2.65793 48.05693 -15.99808 -7.57055 21.03721 68.42357 -9.15581 3.44482 19.54472 26.62274 -54.99911 88.31438 -62.49262 -28.03249 1.17687 9.71463 3.94115 -11.95814 -30.91862 9.12857 0.39987 3.81645 23.00154 3.69222 13.31272 -35.8513 10.40142 -4.57027 -13.04396
-0.96458 0.55888 0.19248 585.32917 0 -4.74651 -17.75159 15.78372 6.66684 -10.50369 -4.19429 2.69129 49.18542 -15.71806 -6.20188 21.08238 66.59667 -9.98285 3.24139 19.35103 25.72191 -54.62176 87.64967 -62.85712 -28.71449 1.2705 10.28053 3.56306 -10.78829 -30.69601 8.60684 0.42273 4.07362 23.67075 3.90696 12.74285 -37.54464 10.48811 -4.58635 -12.69376
-0.95725 0.55967 0.19407 583.9731 0 -4.64079 -17.77542 16.32725 6.29915 -10.50512 -3.28209 2.68166 50.28093 -15.39029 -4.6877 21.11646 64.38224 -10.82651 3.02392 19.21942 24.55195 -54.35114 86.84309 -63.24638 -29.46765 1.366 10.91492 3.01639 -9.77387 -30.57858 7.8121 0.51575 4.59554 24.19192 4.08439 11.79828 -39.28066 10.46266 -4.53332 -12.17266
-0.95 0.56024 0.19544 582.61792 0 -4.56251 -17.80785 16.89682 6.00189 -10.50137 -2.46506 2.68878 51.38208 -15.07018 -3.23403 21.14756 62.39943 -11.63827 2.82266 19.08139 23.51166 -54.0469 86.09136 -63.59363 -30.14945 1.45357 11.50368 2.55507 -8.66664 -30.3743 7.13053 0.56911 4.98865 24.75479 4.29416 11.01998 -41.00063 10.49852 -4.50898 -11.72479
-0.94268 0.56077 0.19664 581.3228 0 -4.47325 -17.86789 17.52014 5.70106 -10.46082 -1.61687 2.70747 52.53275 -14.80843 -1.79535 21.21281 60.17936 -12.55743 2.58076 18.85302 22.43394 -53.67502 85.37687 -64.07263 -30.99663 1.5714 12.16485 2.05598 -7.63184 -30.33731 6.49047 0.65121 5.41084 25.43502 4.44558 10.25306 -42.7243 10.49579 -4.4973 -11.29369
-0.93547 0.5615 0.19833 579.8957 0 -4.39406 -17.86178 18.00881 5.37151 -10.50365 -0.78999 2.69214 53.56757 -14.41401 -0.29379 21.20406 58.36178 -13.2549 2.41983 18.82686 21.373 -53.47025 84.55271 -64.28183 -31.51798 1.62659 12.68926 1.59633 -6.49089 -29.97856 5.702 0.69192 5.83838 25.82946 4.70704 9.37598 -44.43967 10.54488 -4.44334 -10.78981
-0.9286 0.56276 0.2012 578.11987 0 -4.34609 -17.68404 18.15627 5.00117 -10.76844 -0.06191 2.59077 54.30314 -13.66722 1.34016 20.99561 57.76131 -13.3381 2.48606 19.34488 20.41996 -53.71306 83.457 -63.7464 -31.09751 1.50707 12.79367 1.28115 -5.02357 -28.67265 4.55655 0.59833 6.21005 25.50319 5.28191 8.28027 -46.16784 10.76524 -4.28034 -10.10328
-0.92184 0.56419 0.20454 576.21271 0 -4.31164 -17.44025 18.1684 4.60724 -11.11571 0.63577 2.45721 54.91982 -12.789 3.032 20.71299 57.57832 -13.19672 2.63411 20.06389 19.49436 -54.11884 82.25709 -62.93725 -30.35089 1.32456 12.76108 1.01261 -3.44663 -27.04458 3.27452 0.46174 6.57949 24.88808 5.96705 7.08777 -47.87449 11.04142 -4.08036 -9.35457
-0.91502 0.56549 0.20769 574.36138 0 -4.27656 -17.22415 18.23482 4.22365 -11.42537 1.34107 2.33997 55.58118 -11.96867 4.69982 20.46268 57.19695 -13.15613 2.74447 20.68992 18.56034 -54.44293 81.10733 -62.24894 -29.76935 1.1717 12.80594 0.72645 -1.9193 -25.5849 2.06423 0.34725 6.95531 24.38243 6.6015 5.94526 -49.56027 11.29001 -3.90083 -8.6486
